# xmcd
#
# Track frame offsets:
#	150
#	18487
#	43138
#	58262
#	77423
#	91040
#	117352
#	145759
#	167042
#
# Disc length: 2531 seconds
#
# Revision: 96
# Processed by: cddbd v1.5.2PL0 Copyright (c) Steve Scherf et al.
# Submitted via: Jack! The Knife 20 Magnifico
#
DISCID=6e09e109
DTITLE=Dire Straits - Dire Straits
DYEAR=1978
DGENRE=Rock
TTITLE0=Down To The Waterline
TTITLE1=Water Of Love
TTITLE2=Setting Me Up
TTITLE3=Six Blade Knife
TTITLE4=Southbound Again
TTITLE5=Sultans Of Swing
TTITLE6=In The Gallery
TTITLE7=Wild West End
TTITLE8=Lions
EXTD=Muff Winwood
EXTT0=Mark Knopfler
EXTT1=Mark Knopfler
EXTT2=Mark Knopfler
EXTT3=Mark Knopfler
EXTT4=Mark Knopfler
EXTT5=Mark Knopfler
EXTT6=Mark Knopfler
EXTT7=Mark Knopfler
EXTT8=Mark Knopfler
PLAYORDER=
